<mxfile host="Electron" agent="Mozilla/5.0 (Macintosh; Intel Mac OS X 10_15_7) AppleWebKit/537.36 (KHTML, like Gecko) draw.io/24.7.17 Chrome/128.0.6613.36 Electron/32.0.1 Safari/537.36" version="24.7.17">
  <diagram name="Page-1" id="bOf0HR_xCqJvzKOaT4DG">
    <mxGraphModel dx="1242" dy="878" grid="1" gridSize="10" guides="1" tooltips="1" connect="1" arrows="1" fold="1" page="1" pageScale="1" pageWidth="827" pageHeight="1169" math="0" shadow="0">
      <root>
        <mxCell id="0" />
        <mxCell id="1" parent="0" />
        <mxCell id="RDQVopvE_tYkotx-0Mo9-9" style="rounded=0;orthogonalLoop=1;jettySize=auto;html=1;fillColor=#d5e8d4;strokeColor=#82b366;strokeWidth=3;exitX=1;exitY=0.5;exitDx=0;exitDy=0;" parent="1" source="qrAxGj_3SFe10vja1RBG-5" target="RDQVopvE_tYkotx-0Mo9-1" edge="1">
          <mxGeometry relative="1" as="geometry">
            <mxPoint x="621" y="88.5" as="sourcePoint" />
            <mxPoint x="686.875" y="92.4326701450949" as="targetPoint" />
          </mxGeometry>
        </mxCell>
        <mxCell id="XYXzjVyvllxgV2Fr2JS3-1" value="Backend" style="rounded=1;whiteSpace=wrap;html=1;" parent="1" vertex="1">
          <mxGeometry x="409" y="83" width="71" height="46" as="geometry" />
        </mxCell>
        <mxCell id="RDQVopvE_tYkotx-0Mo9-10" style="rounded=0;orthogonalLoop=1;jettySize=auto;html=1;dashed=1;dashPattern=12 12;entryX=0;entryY=0.5;entryDx=0;entryDy=0;" parent="1" source="XYXzjVyvllxgV2Fr2JS3-8" target="qrAxGj_3SFe10vja1RBG-15" edge="1">
          <mxGeometry relative="1" as="geometry">
            <mxPoint x="560" y="285" as="targetPoint" />
          </mxGeometry>
        </mxCell>
        <mxCell id="XYXzjVyvllxgV2Fr2JS3-8" value="Backend" style="rounded=1;whiteSpace=wrap;html=1;" parent="1" vertex="1">
          <mxGeometry x="413" y="260" width="77" height="50" as="geometry" />
        </mxCell>
        <mxCell id="XYXzjVyvllxgV2Fr2JS3-9" value="Frontend&amp;nbsp;&lt;div&gt;(API &amp;amp; Dashboard)&lt;/div&gt;" style="rounded=1;whiteSpace=wrap;html=1;" parent="1" vertex="1">
          <mxGeometry x="220" y="160" width="150" height="88.4" as="geometry" />
        </mxCell>
        <mxCell id="RDQVopvE_tYkotx-0Mo9-5" style="rounded=0;orthogonalLoop=1;jettySize=auto;html=1;exitX=0;exitY=0.25;exitDx=0;exitDy=0;entryX=0.978;entryY=0.881;entryDx=0;entryDy=0;entryPerimeter=0;" parent="1" source="XYXzjVyvllxgV2Fr2JS3-9" target="XYXzjVyvllxgV2Fr2JS3-2" edge="1">
          <mxGeometry relative="1" as="geometry">
            <mxPoint x="203" y="331" as="sourcePoint" />
            <mxPoint x="180" y="190" as="targetPoint" />
          </mxGeometry>
        </mxCell>
        <mxCell id="RDQVopvE_tYkotx-0Mo9-7" style="rounded=0;orthogonalLoop=1;jettySize=auto;html=1;entryX=1;entryY=0.25;entryDx=0;entryDy=0;exitX=0;exitY=0.75;exitDx=0;exitDy=0;" parent="1" target="XYXzjVyvllxgV2Fr2JS3-9" edge="1" source="XYXzjVyvllxgV2Fr2JS3-1">
          <mxGeometry relative="1" as="geometry">
            <mxPoint x="420" y="210" as="sourcePoint" />
          </mxGeometry>
        </mxCell>
        <mxCell id="RDQVopvE_tYkotx-0Mo9-8" style="rounded=0;orthogonalLoop=1;jettySize=auto;html=1;exitX=0;exitY=0.25;exitDx=0;exitDy=0;entryX=1;entryY=0.75;entryDx=0;entryDy=0;" parent="1" source="XYXzjVyvllxgV2Fr2JS3-8" target="XYXzjVyvllxgV2Fr2JS3-9" edge="1">
          <mxGeometry relative="1" as="geometry">
            <mxPoint x="430" y="215" as="sourcePoint" />
            <mxPoint x="460" y="210" as="targetPoint" />
          </mxGeometry>
        </mxCell>
        <mxCell id="RDQVopvE_tYkotx-0Mo9-13" value="" style="group" parent="1" vertex="1" connectable="0">
          <mxGeometry x="669.79" y="77.5" width="110" height="110" as="geometry" />
        </mxCell>
        <mxCell id="RDQVopvE_tYkotx-0Mo9-1" value="" style="sketch=0;pointerEvents=1;shadow=0;dashed=0;html=1;strokeColor=none;fillColor=#434445;aspect=fixed;labelPosition=center;verticalLabelPosition=bottom;verticalAlign=top;align=center;outlineConnect=0;shape=mxgraph.vvd.cpu;container=1;" parent="RDQVopvE_tYkotx-0Mo9-13" vertex="1">
          <mxGeometry x="20.625" y="2.4444444444444446" width="55.99547511312218" height="55.99547511312218" as="geometry">
            <mxRectangle x="15" width="50" height="40" as="alternateBounds" />
          </mxGeometry>
        </mxCell>
        <mxCell id="RDQVopvE_tYkotx-0Mo9-11" value="Quantum&amp;nbsp;&lt;div&gt;&lt;span style=&quot;background-color: initial;&quot;&gt;chip&lt;/span&gt;&lt;/div&gt;" style="text;html=1;align=center;verticalAlign=middle;resizable=0;points=[];autosize=1;strokeColor=none;fillColor=none;" parent="RDQVopvE_tYkotx-0Mo9-13" vertex="1">
          <mxGeometry x="8.317000000000121" y="62.40419991772936" width="80" height="40" as="geometry" />
        </mxCell>
        <mxCell id="RDQVopvE_tYkotx-0Mo9-15" value="" style="group" parent="1" vertex="1" connectable="0">
          <mxGeometry x="100" y="70" width="100" height="97.4" as="geometry" />
        </mxCell>
        <mxCell id="XYXzjVyvllxgV2Fr2JS3-2" value="" style="image;points=[];aspect=fixed;html=1;align=center;shadow=0;dashed=0;image=img/lib/allied_telesis/computer_and_terminals/Personal_Computer_with_Server.svg;" parent="RDQVopvE_tYkotx-0Mo9-15" vertex="1">
          <mxGeometry x="10" width="62.400000000000006" height="62.400000000000006" as="geometry" />
        </mxCell>
        <mxCell id="XYXzjVyvllxgV2Fr2JS3-15" value="SDK" style="text;html=1;align=center;verticalAlign=middle;resizable=0;points=[];autosize=1;strokeColor=none;fillColor=none;" parent="RDQVopvE_tYkotx-0Mo9-15" vertex="1">
          <mxGeometry x="15" y="62.400000000000006" width="50" height="30" as="geometry" />
        </mxCell>
        <mxCell id="JHPLUJ7aycdd25sqj4u7-1" value="" style="group" parent="1" vertex="1" connectable="0">
          <mxGeometry x="100" y="260" width="100" height="97.4" as="geometry" />
        </mxCell>
        <mxCell id="JHPLUJ7aycdd25sqj4u7-2" value="" style="image;points=[];aspect=fixed;html=1;align=center;shadow=0;dashed=0;image=img/lib/allied_telesis/computer_and_terminals/Personal_Computer_with_Server.svg;" parent="JHPLUJ7aycdd25sqj4u7-1" vertex="1">
          <mxGeometry x="10" width="62.400000000000006" height="62.400000000000006" as="geometry" />
        </mxCell>
        <mxCell id="JHPLUJ7aycdd25sqj4u7-3" value="SDK" style="text;html=1;align=center;verticalAlign=middle;resizable=0;points=[];autosize=1;strokeColor=none;fillColor=none;" parent="JHPLUJ7aycdd25sqj4u7-1" vertex="1">
          <mxGeometry x="15" y="62.400000000000006" width="50" height="30" as="geometry" />
        </mxCell>
        <mxCell id="JHPLUJ7aycdd25sqj4u7-4" style="rounded=0;orthogonalLoop=1;jettySize=auto;html=1;entryX=0.994;entryY=0.272;entryDx=0;entryDy=0;entryPerimeter=0;exitX=0;exitY=0.75;exitDx=0;exitDy=0;" parent="1" source="XYXzjVyvllxgV2Fr2JS3-9" target="JHPLUJ7aycdd25sqj4u7-2" edge="1">
          <mxGeometry relative="1" as="geometry">
            <mxPoint x="170" y="227" as="sourcePoint" />
          </mxGeometry>
        </mxCell>
        <mxCell id="JHPLUJ7aycdd25sqj4u7-8" value="" style="group" parent="1" vertex="1" connectable="0">
          <mxGeometry x="110" y="353" width="260" height="85" as="geometry" />
        </mxCell>
        <mxCell id="JHPLUJ7aycdd25sqj4u7-7" value="MicrowaveÂ Pulse instructions" style="text;html=1;align=center;verticalAlign=middle;resizable=0;points=[];autosize=1;strokeColor=none;fillColor=none;" parent="JHPLUJ7aycdd25sqj4u7-8" vertex="1">
          <mxGeometry x="58" y="55" width="140" height="30" as="geometry" />
        </mxCell>
        <mxCell id="d2YfcmywuFba4Ras1Hy--1" value="" style="endArrow=classic;html=1;rounded=0;" parent="JHPLUJ7aycdd25sqj4u7-8" edge="1">
          <mxGeometry width="50" height="50" relative="1" as="geometry">
            <mxPoint x="4" y="45" as="sourcePoint" />
            <mxPoint x="44" y="45" as="targetPoint" />
            <Array as="points">
              <mxPoint x="4" y="45" />
            </Array>
          </mxGeometry>
        </mxCell>
        <mxCell id="d2YfcmywuFba4Ras1Hy--2" value="Authentication &amp;amp; basic device data" style="text;html=1;align=left;verticalAlign=middle;resizable=0;points=[];autosize=1;strokeColor=none;fillColor=none;" parent="JHPLUJ7aycdd25sqj4u7-8" vertex="1">
          <mxGeometry x="50" y="30" width="210" height="30" as="geometry" />
        </mxCell>
        <mxCell id="d2YfcmywuFba4Ras1Hy--3" value="&lt;u&gt;Legend&lt;/u&gt;" style="text;html=1;align=left;verticalAlign=middle;resizable=0;points=[];autosize=1;strokeColor=none;fillColor=none;" parent="JHPLUJ7aycdd25sqj4u7-8" vertex="1">
          <mxGeometry width="60" height="30" as="geometry" />
        </mxCell>
        <mxCell id="JHPLUJ7aycdd25sqj4u7-6" value="" style="endArrow=classic;html=1;rounded=0;dashed=1;dashPattern=12 12;" parent="JHPLUJ7aycdd25sqj4u7-8" edge="1">
          <mxGeometry width="50" height="50" relative="1" as="geometry">
            <mxPoint x="4" y="71" as="sourcePoint" />
            <mxPoint x="44" y="71" as="targetPoint" />
            <Array as="points">
              <mxPoint x="4" y="71" />
            </Array>
          </mxGeometry>
        </mxCell>
        <mxCell id="qrAxGj_3SFe10vja1RBG-1" style="rounded=0;orthogonalLoop=1;jettySize=auto;html=1;entryX=0;entryY=0.75;entryDx=0;entryDy=0;exitX=1.01;exitY=0.561;exitDx=0;exitDy=0;exitPerimeter=0;dashed=1;fillColor=#60a917;strokeColor=#000000;" edge="1" parent="1" source="JHPLUJ7aycdd25sqj4u7-2" target="XYXzjVyvllxgV2Fr2JS3-8">
          <mxGeometry relative="1" as="geometry">
            <mxPoint x="182" y="300" as="sourcePoint" />
            <mxPoint x="309" y="237" as="targetPoint" />
          </mxGeometry>
        </mxCell>
        <mxCell id="qrAxGj_3SFe10vja1RBG-2" style="rounded=0;orthogonalLoop=1;jettySize=auto;html=1;entryX=-0.008;entryY=0.383;entryDx=0;entryDy=0;entryPerimeter=0;dashed=1;" edge="1" parent="1" source="XYXzjVyvllxgV2Fr2JS3-2" target="XYXzjVyvllxgV2Fr2JS3-1">
          <mxGeometry relative="1" as="geometry">
            <mxPoint x="183" y="305" as="sourcePoint" />
            <mxPoint x="530" y="326" as="targetPoint" />
          </mxGeometry>
        </mxCell>
        <mxCell id="qrAxGj_3SFe10vja1RBG-3" style="rounded=0;orthogonalLoop=1;jettySize=auto;html=1;dashed=1;" edge="1" parent="1">
          <mxGeometry relative="1" as="geometry">
            <mxPoint x="401" y="394" as="sourcePoint" />
            <mxPoint x="441" y="394" as="targetPoint" />
          </mxGeometry>
        </mxCell>
        <mxCell id="qrAxGj_3SFe10vja1RBG-4" value="&lt;span style=&quot;color: rgb(0, 0, 0); font-family: Helvetica; font-size: 12px; font-style: normal; font-variant-ligatures: normal; font-variant-caps: normal; font-weight: 400; letter-spacing: normal; orphans: 2; text-align: center; text-indent: 0px; text-transform: none; widows: 2; word-spacing: 0px; -webkit-text-stroke-width: 0px; white-space: nowrap; background-color: rgb(251, 251, 251); text-decoration-thickness: initial; text-decoration-style: initial; text-decoration-color: initial; display: inline !important; float: none;&quot;&gt;OpenPulse Instructions&lt;/span&gt;" style="text;whiteSpace=wrap;html=1;" vertex="1" parent="1">
          <mxGeometry x="446" y="381" width="160" height="32" as="geometry" />
        </mxCell>
        <mxCell id="qrAxGj_3SFe10vja1RBG-6" value="" style="rounded=0;orthogonalLoop=1;jettySize=auto;html=1;dashed=1;dashPattern=12 12;" edge="1" parent="1" source="XYXzjVyvllxgV2Fr2JS3-1" target="qrAxGj_3SFe10vja1RBG-5">
          <mxGeometry relative="1" as="geometry">
            <mxPoint x="480" y="106" as="sourcePoint" />
            <mxPoint x="720" y="105" as="targetPoint" />
          </mxGeometry>
        </mxCell>
        <mxCell id="qrAxGj_3SFe10vja1RBG-5" value="Control instruments" style="rounded=1;whiteSpace=wrap;html=1;" vertex="1" parent="1">
          <mxGeometry x="550" y="77.5" width="100" height="57" as="geometry" />
        </mxCell>
        <mxCell id="qrAxGj_3SFe10vja1RBG-9" style="rounded=0;orthogonalLoop=1;jettySize=auto;html=1;fillColor=#d5e8d4;strokeColor=#82b366;strokeWidth=3;" edge="1" parent="1">
          <mxGeometry relative="1" as="geometry">
            <mxPoint x="400" y="422" as="sourcePoint" />
            <mxPoint x="442" y="423" as="targetPoint" />
          </mxGeometry>
        </mxCell>
        <mxCell id="qrAxGj_3SFe10vja1RBG-10" value="&lt;span style=&quot;color: rgb(0, 0, 0); font-family: Helvetica; font-size: 12px; font-style: normal; font-variant-ligatures: normal; font-variant-caps: normal; font-weight: 400; letter-spacing: normal; orphans: 2; text-align: center; text-indent: 0px; text-transform: none; widows: 2; word-spacing: 0px; -webkit-text-stroke-width: 0px; white-space: nowrap; background-color: rgb(251, 251, 251); text-decoration-thickness: initial; text-decoration-style: initial; text-decoration-color: initial; display: inline !important; float: none;&quot;&gt;Microwave Pulses&lt;/span&gt;" style="text;whiteSpace=wrap;html=1;" vertex="1" parent="1">
          <mxGeometry x="446" y="406" width="160" height="32" as="geometry" />
        </mxCell>
        <mxCell id="qrAxGj_3SFe10vja1RBG-12" style="rounded=0;orthogonalLoop=1;jettySize=auto;html=1;fillColor=#d5e8d4;strokeColor=#82b366;strokeWidth=3;exitX=1;exitY=0.5;exitDx=0;exitDy=0;" edge="1" parent="1" source="qrAxGj_3SFe10vja1RBG-15" target="qrAxGj_3SFe10vja1RBG-13">
          <mxGeometry relative="1" as="geometry">
            <mxPoint x="627.5" y="268.5" as="sourcePoint" />
            <mxPoint x="693.375" y="272.4326701450949" as="targetPoint" />
          </mxGeometry>
        </mxCell>
        <mxCell id="qrAxGj_3SFe10vja1RBG-13" value="" style="sketch=0;pointerEvents=1;shadow=0;dashed=0;html=1;strokeColor=none;fillColor=#434445;aspect=fixed;labelPosition=center;verticalLabelPosition=bottom;verticalAlign=top;align=center;outlineConnect=0;shape=mxgraph.vvd.cpu;container=1;" vertex="1" parent="1">
          <mxGeometry x="695.89" y="256.39" width="57.22" height="57.22" as="geometry">
            <mxRectangle x="15" width="50" height="40" as="alternateBounds" />
          </mxGeometry>
        </mxCell>
        <mxCell id="qrAxGj_3SFe10vja1RBG-14" value="Quantum&lt;div&gt;chip&lt;/div&gt;" style="text;html=1;align=center;verticalAlign=middle;resizable=0;points=[];autosize=1;strokeColor=none;fillColor=none;" vertex="1" parent="1">
          <mxGeometry x="689.5" y="313.6062443438914" width="70" height="40" as="geometry" />
        </mxCell>
        <mxCell id="qrAxGj_3SFe10vja1RBG-15" value="Control instruments" style="rounded=1;whiteSpace=wrap;html=1;" vertex="1" parent="1">
          <mxGeometry x="556.5" y="250.61" width="93.5" height="67" as="geometry" />
        </mxCell>
      </root>
    </mxGraphModel>
  </diagram>
</mxfile>
